<svg width="82" height="64" viewBox="0 0 82 64" fill="none" xmlns="http://www.w3.org/2000/svg">
<g filter="url(#filter0_i_75_548)">
<rect width="82" height="65" fill="white"/>
<path d="M30.1588 43.624V52H28.4788V48.436H24.8908V52H23.2108V43.624H24.8908V47.068H28.4788V43.624H30.1588ZM34.7644 52.108C34.1244 52.108 33.5484 51.968 33.0364 51.688C32.5244 51.4 32.1204 50.996 31.8244 50.476C31.5364 49.956 31.3924 49.356 31.3924 48.676C31.3924 47.996 31.5404 47.396 31.8364 46.876C32.1404 46.356 32.5524 45.956 33.0724 45.676C33.5924 45.388 34.1724 45.244 34.8124 45.244C35.4524 45.244 36.0324 45.388 36.5524 45.676C37.0724 45.956 37.4804 46.356 37.7764 46.876C38.0804 47.396 38.2324 47.996 38.2324 48.676C38.2324 49.356 38.0764 49.956 37.7644 50.476C37.4604 50.996 37.0444 51.4 36.5164 51.688C35.9964 51.968 35.4124 52.108 34.7644 52.108ZM34.7644 50.644C35.0684 50.644 35.3524 50.572 35.6164 50.428C35.8884 50.276 36.1044 50.052 36.2644 49.756C36.4244 49.46 36.5044 49.1 36.5044 48.676C36.5044 48.044 36.3364 47.56 36.0004 47.224C35.6724 46.88 35.2684 46.708 34.7884 46.708C34.3084 46.708 33.9044 46.88 33.5764 47.224C33.2564 47.56 33.0964 48.044 33.0964 48.676C33.0964 49.308 33.2524 49.796 33.5644 50.14C33.8844 50.476 34.2844 50.644 34.7644 50.644ZM47.7207 45.256C48.5367 45.256 49.1927 45.508 49.6887 46.012C50.1927 46.508 50.4447 47.204 50.4447 48.1V52H48.7647V48.328C48.7647 47.808 48.6327 47.412 48.3687 47.14C48.1047 46.86 47.7447 46.72 47.2887 46.72C46.8327 46.72 46.4687 46.86 46.1967 47.14C45.9327 47.412 45.8007 47.808 45.8007 48.328V52H44.1207V48.328C44.1207 47.808 43.9887 47.412 43.7247 47.14C43.4607 46.86 43.1007 46.72 42.6447 46.72C42.1807 46.72 41.8127 46.86 41.5407 47.14C41.2767 47.412 41.1447 47.808 41.1447 48.328V52H39.4647V45.352H41.1447V46.156C41.3607 45.876 41.6367 45.656 41.9727 45.496C42.3167 45.336 42.6927 45.256 43.1007 45.256C43.6207 45.256 44.0847 45.368 44.4927 45.592C44.9007 45.808 45.2167 46.12 45.4407 46.528C45.6567 46.144 45.9687 45.836 46.3767 45.604C46.7927 45.372 47.2407 45.256 47.7207 45.256ZM58.2189 48.532C58.2189 48.772 58.2029 48.988 58.1709 49.18H53.3109C53.3509 49.66 53.5189 50.036 53.8149 50.308C54.1109 50.58 54.4749 50.716 54.9069 50.716C55.5309 50.716 55.9749 50.448 56.2389 49.912H58.0509C57.8589 50.552 57.4909 51.08 56.9469 51.496C56.4029 51.904 55.7349 52.108 54.9429 52.108C54.3029 52.108 53.7269 51.968 53.2149 51.688C52.7109 51.4 52.3149 50.996 52.0269 50.476C51.7469 49.956 51.6069 49.356 51.6069 48.676C51.6069 47.988 51.7469 47.384 52.0269 46.864C52.3069 46.344 52.6989 45.944 53.2029 45.664C53.7069 45.384 54.2869 45.244 54.9429 45.244C55.5749 45.244 56.1389 45.38 56.6349 45.652C57.1389 45.924 57.5269 46.312 57.7989 46.816C58.0789 47.312 58.2189 47.884 58.2189 48.532ZM56.4789 48.052C56.4709 47.62 56.3149 47.276 56.0109 47.02C55.7069 46.756 55.3349 46.624 54.8949 46.624C54.4789 46.624 54.1269 46.752 53.8389 47.008C53.5589 47.256 53.3869 47.604 53.3229 48.052H56.4789Z" fill="#057A55"/>
<path d="M32 26L34 24M34 24L41 17L48 24M34 24V34C34 34.2652 34.1054 34.5196 34.2929 34.7071C34.4804 34.8946 34.7348 35 35 35H38M48 24L50 26M48 24V34C48 34.2652 47.8946 34.5196 47.7071 34.7071C47.5196 34.8946 47.2652 35 47 35H44M38 35C38.2652 35 38.5196 34.8946 38.7071 34.7071C38.8946 34.5196 39 34.2652 39 34V30C39 29.7348 39.1054 29.4804 39.2929 29.2929C39.4804 29.1054 39.7348 29 40 29H42C42.2652 29 42.5196 29.1054 42.7071 29.2929C42.8946 29.4804 43 29.7348 43 30V34C43 34.2652 43.1054 34.5196 43.2929 34.7071C43.4804 34.8946 43.7348 35 44 35M38 35H44" stroke="#057A55" stroke-width="2" stroke-linecap="round" stroke-linejoin="round"/>
</g>
<defs>
<filter id="filter0_i_75_548" x="0" y="0" width="82" height="65" filterUnits="userSpaceOnUse" color-interpolation-filters="sRGB">
<feFlood flood-opacity="0" result="BackgroundImageFix"/>
<feBlend mode="normal" in="SourceGraphic" in2="BackgroundImageFix" result="shape"/>
<feColorMatrix in="SourceAlpha" type="matrix" values="0 0 0 0 0 0 0 0 0 0 0 0 0 0 0 0 0 0 127 0" result="hardAlpha"/>
<feOffset dy="2"/>
<feComposite in2="hardAlpha" operator="arithmetic" k2="-1" k3="1"/>
<feColorMatrix type="matrix" values="0 0 0 0 0.0196078 0 0 0 0 0.478431 0 0 0 0 0.333333 0 0 0 1 0"/>
<feBlend mode="normal" in2="shape" result="effect1_innerShadow_75_548"/>
</filter>
</defs>
</svg>
