<svg width="82" height="64" viewBox="0 0 82 64" fill="none" xmlns="http://www.w3.org/2000/svg">
<rect width="82" height="65" fill="white"/>
<path d="M33.6434 43.636V52H32.5514V48.208H28.2914V52H27.1994V43.636H28.2914V47.308H32.5514V43.636H33.6434ZM36.072 44.356C35.864 44.356 35.688 44.284 35.544 44.14C35.4 43.996 35.328 43.82 35.328 43.612C35.328 43.404 35.4 43.228 35.544 43.084C35.688 42.94 35.864 42.868 36.072 42.868C36.272 42.868 36.44 42.94 36.576 43.084C36.72 43.228 36.792 43.404 36.792 43.612C36.792 43.82 36.72 43.996 36.576 44.14C36.44 44.284 36.272 44.356 36.072 44.356ZM36.6 45.424V52H35.508V45.424H36.6ZM39.5531 46.492C39.7451 46.116 40.0171 45.824 40.3691 45.616C40.7291 45.408 41.1651 45.304 41.6771 45.304V46.432H41.3891C40.1651 46.432 39.5531 47.096 39.5531 48.424V52H38.4611V45.424H39.5531V46.492ZM48.9377 48.46C48.9377 48.668 48.9257 48.888 48.9017 49.12H43.6457C43.6857 49.768 43.9057 50.276 44.3057 50.644C44.7137 51.004 45.2057 51.184 45.7817 51.184C46.2537 51.184 46.6457 51.076 46.9577 50.86C47.2777 50.636 47.5017 50.34 47.6297 49.972H48.8057C48.6297 50.604 48.2777 51.12 47.7497 51.52C47.2217 51.912 46.5657 52.108 45.7817 52.108C45.1577 52.108 44.5977 51.968 44.1017 51.688C43.6137 51.408 43.2297 51.012 42.9497 50.5C42.6697 49.98 42.5297 49.38 42.5297 48.7C42.5297 48.02 42.6657 47.424 42.9377 46.912C43.2097 46.4 43.5897 46.008 44.0777 45.736C44.5737 45.456 45.1417 45.316 45.7817 45.316C46.4057 45.316 46.9577 45.452 47.4377 45.724C47.9177 45.996 48.2857 46.372 48.5417 46.852C48.8057 47.324 48.9377 47.86 48.9377 48.46ZM47.8097 48.232C47.8097 47.816 47.7177 47.46 47.5337 47.164C47.3497 46.86 47.0977 46.632 46.7777 46.48C46.4657 46.32 46.1177 46.24 45.7337 46.24C45.1817 46.24 44.7097 46.416 44.3177 46.768C43.9337 47.12 43.7137 47.608 43.6577 48.232H47.8097ZM52.7071 52.108C52.2031 52.108 51.7511 52.024 51.3511 51.856C50.9511 51.68 50.6351 51.44 50.4031 51.136C50.1711 50.824 50.0431 50.468 50.0191 50.068H51.1471C51.1791 50.396 51.3311 50.664 51.6031 50.872C51.8831 51.08 52.2471 51.184 52.6951 51.184C53.1111 51.184 53.4391 51.092 53.6791 50.908C53.9191 50.724 54.0391 50.492 54.0391 50.212C54.0391 49.924 53.9111 49.712 53.6551 49.576C53.3991 49.432 53.0031 49.292 52.4671 49.156C51.9791 49.028 51.5791 48.9 51.2671 48.772C50.9631 48.636 50.6991 48.44 50.4751 48.184C50.2591 47.92 50.1511 47.576 50.1511 47.152C50.1511 46.816 50.2511 46.508 50.4511 46.228C50.6511 45.948 50.9351 45.728 51.3031 45.568C51.6711 45.4 52.0911 45.316 52.5631 45.316C53.2911 45.316 53.8791 45.5 54.3271 45.868C54.7751 46.236 55.0151 46.74 55.0471 47.38H53.9551C53.9311 47.036 53.7911 46.76 53.5351 46.552C53.2871 46.344 52.9511 46.24 52.5271 46.24C52.1351 46.24 51.8231 46.324 51.5911 46.492C51.3591 46.66 51.2431 46.88 51.2431 47.152C51.2431 47.368 51.3111 47.548 51.4471 47.692C51.5911 47.828 51.7671 47.94 51.9751 48.028C52.1911 48.108 52.4871 48.2 52.8631 48.304C53.3351 48.432 53.7191 48.56 54.0151 48.688C54.3111 48.808 54.5631 48.992 54.7711 49.24C54.9871 49.488 55.0991 49.812 55.1071 50.212C55.1071 50.572 55.0071 50.896 54.8071 51.184C54.6071 51.472 54.3231 51.7 53.9551 51.868C53.5951 52.028 53.1791 52.108 52.7071 52.108Z" fill="#6B7280"/>
<path d="M38.0001 26L40.0001 28L44.0001 24M36.8351 18.697C37.5524 18.6397 38.2334 18.3577 38.7811 17.891C39.4 17.3632 40.1867 17.0734 41.0001 17.0734C41.8135 17.0734 42.6002 17.3632 43.2191 17.891C43.7668 18.3577 44.4478 18.6397 45.1651 18.697C45.9758 18.7615 46.7371 19.1128 47.3122 19.6879C47.8873 20.263 48.2386 21.0242 48.3031 21.835C48.3603 22.5523 48.6424 23.2333 49.1091 23.781C49.6368 24.3999 49.9267 25.1866 49.9267 26C49.9267 26.8133 49.6368 27.6001 49.1091 28.219C48.6424 28.7667 48.3603 29.4477 48.3031 30.165C48.2386 30.9757 47.8873 31.737 47.3122 32.312C46.7371 32.8871 45.9758 33.2385 45.1651 33.303C44.4478 33.3602 43.7668 33.6423 43.2191 34.109C42.6002 34.6367 41.8135 34.9266 41.0001 34.9266C40.1867 34.9266 39.4 34.6367 38.7811 34.109C38.2334 33.6423 37.5524 33.3602 36.8351 33.303C36.0243 33.2385 35.2631 32.8871 34.688 32.312C34.1129 31.737 33.7616 30.9757 33.6971 30.165C33.6398 29.4477 33.3578 28.7667 32.8911 28.219C32.3634 27.6001 32.0735 26.8133 32.0735 26C32.0735 25.1866 32.3634 24.3999 32.8911 23.781C33.3578 23.2333 33.6398 22.5523 33.6971 21.835C33.7616 21.0242 34.1129 20.263 34.688 19.6879C35.2631 19.1128 36.0243 18.7615 36.8351 18.697Z" stroke="#6B7280" stroke-width="2" stroke-linecap="round" stroke-linejoin="round"/>
</svg>
